<mxfile host="Electron" agent="Mozilla/5.0 (Windows NT 10.0; Win64; x64) AppleWebKit/537.36 (KHTML, like Gecko) draw.io/25.0.2 Chrome/128.0.6613.186 Electron/32.2.5 Safari/537.36" version="25.0.2">
  <diagram name="Página-1" id="28deNrffiToloXLnFexw">
    <mxGraphModel dx="1050" dy="629" grid="1" gridSize="10" guides="1" tooltips="1" connect="1" arrows="1" fold="1" page="1" pageScale="1" pageWidth="827" pageHeight="1169" math="0" shadow="0">
      <root>
        <mxCell id="0" />
        <mxCell id="1" parent="0" />
        <mxCell id="Ng0yyhtY4z_LUYt0CJrz-7" style="edgeStyle=orthogonalEdgeStyle;rounded=0;orthogonalLoop=1;jettySize=auto;html=1;entryX=0.5;entryY=0;entryDx=0;entryDy=0;" edge="1" parent="1" source="Ng0yyhtY4z_LUYt0CJrz-1" target="Ng0yyhtY4z_LUYt0CJrz-2">
          <mxGeometry relative="1" as="geometry" />
        </mxCell>
        <mxCell id="Ng0yyhtY4z_LUYt0CJrz-1" value="INÍCIO" style="rounded=1;whiteSpace=wrap;html=1;" vertex="1" parent="1">
          <mxGeometry x="294" y="50" width="120" height="60" as="geometry" />
        </mxCell>
        <mxCell id="Ng0yyhtY4z_LUYt0CJrz-8" style="edgeStyle=orthogonalEdgeStyle;rounded=0;orthogonalLoop=1;jettySize=auto;html=1;exitX=0.5;exitY=1;exitDx=0;exitDy=0;" edge="1" parent="1" source="Ng0yyhtY4z_LUYt0CJrz-2">
          <mxGeometry relative="1" as="geometry">
            <mxPoint x="354" y="290" as="targetPoint" />
          </mxGeometry>
        </mxCell>
        <mxCell id="Ng0yyhtY4z_LUYt0CJrz-2" value="N1, N2, N3" style="html=1;strokeWidth=2;shape=manualInput;whiteSpace=wrap;rounded=1;size=26;arcSize=11;labelPosition=center;verticalLabelPosition=middle;align=center;verticalAlign=middle;" vertex="1" parent="1">
          <mxGeometry x="304" y="170" width="100" height="60" as="geometry" />
        </mxCell>
        <mxCell id="Ng0yyhtY4z_LUYt0CJrz-9" style="edgeStyle=orthogonalEdgeStyle;rounded=0;orthogonalLoop=1;jettySize=auto;html=1;exitX=0.5;exitY=1;exitDx=0;exitDy=0;" edge="1" parent="1" source="Ng0yyhtY4z_LUYt0CJrz-3">
          <mxGeometry relative="1" as="geometry">
            <mxPoint x="354" y="420" as="targetPoint" />
          </mxGeometry>
        </mxCell>
        <mxCell id="Ng0yyhtY4z_LUYt0CJrz-3" value="MÉDIA = (N1 + N2 + N3) / 3" style="rounded=0;whiteSpace=wrap;html=1;" vertex="1" parent="1">
          <mxGeometry x="294" y="300" width="120" height="60" as="geometry" />
        </mxCell>
        <mxCell id="Ng0yyhtY4z_LUYt0CJrz-10" style="edgeStyle=orthogonalEdgeStyle;rounded=0;orthogonalLoop=1;jettySize=auto;html=1;" edge="1" parent="1" source="Ng0yyhtY4z_LUYt0CJrz-4">
          <mxGeometry relative="1" as="geometry">
            <mxPoint x="190" y="485" as="targetPoint" />
          </mxGeometry>
        </mxCell>
        <mxCell id="Ng0yyhtY4z_LUYt0CJrz-19" value="" style="edgeStyle=orthogonalEdgeStyle;rounded=0;orthogonalLoop=1;jettySize=auto;html=1;" edge="1" parent="1" source="Ng0yyhtY4z_LUYt0CJrz-4">
          <mxGeometry relative="1" as="geometry">
            <mxPoint x="550" y="530" as="targetPoint" />
            <Array as="points">
              <mxPoint x="550" y="485" />
            </Array>
          </mxGeometry>
        </mxCell>
        <mxCell id="Ng0yyhtY4z_LUYt0CJrz-4" value="MÉDIA &amp;gt;= 0&lt;div&gt;E&lt;/div&gt;&lt;div&gt;MÉDIA &amp;lt;= 4&lt;/div&gt;" style="rhombus;whiteSpace=wrap;html=1;" vertex="1" parent="1">
          <mxGeometry x="300.5" y="430" width="107" height="110" as="geometry" />
        </mxCell>
        <mxCell id="Ng0yyhtY4z_LUYt0CJrz-41" style="edgeStyle=orthogonalEdgeStyle;rounded=0;orthogonalLoop=1;jettySize=auto;html=1;entryX=0;entryY=0.5;entryDx=0;entryDy=0;" edge="1" parent="1" source="Ng0yyhtY4z_LUYt0CJrz-5" target="Ng0yyhtY4z_LUYt0CJrz-35">
          <mxGeometry relative="1" as="geometry">
            <Array as="points">
              <mxPoint x="120" y="870" />
            </Array>
          </mxGeometry>
        </mxCell>
        <mxCell id="Ng0yyhtY4z_LUYt0CJrz-5" value="&quot;REPROVADO&quot;" style="shape=document;whiteSpace=wrap;html=1;boundedLbl=1;" vertex="1" parent="1">
          <mxGeometry x="60" y="460" width="120" height="70" as="geometry" />
        </mxCell>
        <mxCell id="Ng0yyhtY4z_LUYt0CJrz-11" value="SIM" style="text;html=1;align=center;verticalAlign=middle;whiteSpace=wrap;rounded=0;" vertex="1" parent="1">
          <mxGeometry x="220" y="450" width="60" height="30" as="geometry" />
        </mxCell>
        <mxCell id="Ng0yyhtY4z_LUYt0CJrz-21" style="edgeStyle=orthogonalEdgeStyle;rounded=0;orthogonalLoop=1;jettySize=auto;html=1;" edge="1" parent="1" source="Ng0yyhtY4z_LUYt0CJrz-17">
          <mxGeometry relative="1" as="geometry">
            <mxPoint x="370" y="585" as="targetPoint" />
          </mxGeometry>
        </mxCell>
        <mxCell id="Ng0yyhtY4z_LUYt0CJrz-27" value="" style="edgeStyle=orthogonalEdgeStyle;rounded=0;orthogonalLoop=1;jettySize=auto;html=1;" edge="1" parent="1" source="Ng0yyhtY4z_LUYt0CJrz-17" target="Ng0yyhtY4z_LUYt0CJrz-26">
          <mxGeometry relative="1" as="geometry" />
        </mxCell>
        <mxCell id="Ng0yyhtY4z_LUYt0CJrz-17" value="MÉDIA &amp;gt; 4&lt;div&gt;E&lt;/div&gt;&lt;div&gt;MÉDIA &amp;lt;7&lt;/div&gt;" style="strokeWidth=2;html=1;shape=mxgraph.flowchart.decision;whiteSpace=wrap;" vertex="1" parent="1">
          <mxGeometry x="500" y="535" width="100" height="100" as="geometry" />
        </mxCell>
        <mxCell id="Ng0yyhtY4z_LUYt0CJrz-20" value="NÃO" style="text;html=1;align=center;verticalAlign=middle;whiteSpace=wrap;rounded=0;" vertex="1" parent="1">
          <mxGeometry x="460" y="450" width="60" height="30" as="geometry" />
        </mxCell>
        <mxCell id="Ng0yyhtY4z_LUYt0CJrz-22" value="SIM" style="text;html=1;align=center;verticalAlign=middle;whiteSpace=wrap;rounded=0;" vertex="1" parent="1">
          <mxGeometry x="414" y="550" width="60" height="30" as="geometry" />
        </mxCell>
        <mxCell id="Ng0yyhtY4z_LUYt0CJrz-38" style="edgeStyle=orthogonalEdgeStyle;rounded=0;orthogonalLoop=1;jettySize=auto;html=1;" edge="1" parent="1" source="Ng0yyhtY4z_LUYt0CJrz-24">
          <mxGeometry relative="1" as="geometry">
            <mxPoint x="240" y="830" as="targetPoint" />
            <Array as="points">
              <mxPoint x="300" y="680" />
              <mxPoint x="241" y="680" />
            </Array>
          </mxGeometry>
        </mxCell>
        <mxCell id="Ng0yyhtY4z_LUYt0CJrz-24" value="&quot;RECUPERAÇÃO&quot;" style="shape=document;whiteSpace=wrap;html=1;boundedLbl=1;" vertex="1" parent="1">
          <mxGeometry x="240" y="560" width="120" height="70" as="geometry" />
        </mxCell>
        <mxCell id="Ng0yyhtY4z_LUYt0CJrz-31" style="edgeStyle=orthogonalEdgeStyle;rounded=0;orthogonalLoop=1;jettySize=auto;html=1;" edge="1" parent="1" source="Ng0yyhtY4z_LUYt0CJrz-26">
          <mxGeometry relative="1" as="geometry">
            <mxPoint x="510" y="720" as="targetPoint" />
          </mxGeometry>
        </mxCell>
        <mxCell id="Ng0yyhtY4z_LUYt0CJrz-33" value="" style="edgeStyle=orthogonalEdgeStyle;rounded=0;orthogonalLoop=1;jettySize=auto;html=1;" edge="1" parent="1" source="Ng0yyhtY4z_LUYt0CJrz-26">
          <mxGeometry relative="1" as="geometry">
            <mxPoint x="800" y="720" as="targetPoint" />
          </mxGeometry>
        </mxCell>
        <mxCell id="Ng0yyhtY4z_LUYt0CJrz-26" value="MÉDIA &amp;gt;=7&lt;div&gt;E&lt;/div&gt;&lt;div&gt;MÉDIA &amp;lt;=10&lt;/div&gt;" style="strokeWidth=2;html=1;shape=mxgraph.flowchart.decision;whiteSpace=wrap;" vertex="1" parent="1">
          <mxGeometry x="620" y="670" width="100" height="100" as="geometry" />
        </mxCell>
        <mxCell id="Ng0yyhtY4z_LUYt0CJrz-28" value="NÃO" style="text;html=1;align=center;verticalAlign=middle;whiteSpace=wrap;rounded=0;" vertex="1" parent="1">
          <mxGeometry x="630" y="550" width="60" height="30" as="geometry" />
        </mxCell>
        <mxCell id="Ng0yyhtY4z_LUYt0CJrz-37" style="edgeStyle=orthogonalEdgeStyle;rounded=0;orthogonalLoop=1;jettySize=auto;html=1;" edge="1" parent="1" source="Ng0yyhtY4z_LUYt0CJrz-30">
          <mxGeometry relative="1" as="geometry">
            <mxPoint x="280" y="830" as="targetPoint" />
          </mxGeometry>
        </mxCell>
        <mxCell id="Ng0yyhtY4z_LUYt0CJrz-30" value="&quot;APROVADO&quot;" style="shape=document;whiteSpace=wrap;html=1;boundedLbl=1;" vertex="1" parent="1">
          <mxGeometry x="380" y="685" width="120" height="70" as="geometry" />
        </mxCell>
        <mxCell id="Ng0yyhtY4z_LUYt0CJrz-36" style="edgeStyle=orthogonalEdgeStyle;rounded=0;orthogonalLoop=1;jettySize=auto;html=1;entryX=1;entryY=0.5;entryDx=0;entryDy=0;" edge="1" parent="1" source="Ng0yyhtY4z_LUYt0CJrz-34" target="Ng0yyhtY4z_LUYt0CJrz-35">
          <mxGeometry relative="1" as="geometry">
            <Array as="points">
              <mxPoint x="880" y="870" />
            </Array>
          </mxGeometry>
        </mxCell>
        <mxCell id="Ng0yyhtY4z_LUYt0CJrz-34" value="&quot;ERRO DE DIGITAÇÃO&quot;" style="shape=document;whiteSpace=wrap;html=1;boundedLbl=1;" vertex="1" parent="1">
          <mxGeometry x="820" y="685" width="120" height="70" as="geometry" />
        </mxCell>
        <mxCell id="Ng0yyhtY4z_LUYt0CJrz-35" value="FIM" style="rounded=1;whiteSpace=wrap;html=1;" vertex="1" parent="1">
          <mxGeometry x="220" y="840" width="120" height="60" as="geometry" />
        </mxCell>
      </root>
    </mxGraphModel>
  </diagram>
</mxfile>
